<svg xmlns="http://www.w3.org/2000/svg" xmlns:xlink="http://www.w3.org/1999/xlink" width="500" zoomAndPan="magnify" viewBox="0 0 375 374.999991" height="500" preserveAspectRatio="xMidYMid meet" version="1.0"><defs><g/><clipPath id="a9480067a6"><path d="M 110.179688 120.589844 L 260.179688 120.589844 L 260.179688 234 L 110.179688 234 Z M 110.179688 120.589844 " clip-rule="nonzero"/></clipPath><clipPath id="9b7a6dfea5"><path d="M 145 142 L 204 142 L 204 234.589844 L 145 234.589844 Z M 145 142 " clip-rule="nonzero"/></clipPath><clipPath id="86958490da"><path d="M 191 119 L 234 119 L 234 173 L 191 173 Z M 191 119 " clip-rule="nonzero"/></clipPath><clipPath id="806e412e7c"><path d="M 191.183594 122.632812 L 229.328125 119.832031 L 233.003906 169.949219 L 194.859375 172.746094 Z M 191.183594 122.632812 " clip-rule="nonzero"/></clipPath><clipPath id="5189234e4b"><path d="M 342.878906 111.503906 L 191.035156 122.640625 L 199.488281 237.832031 L 351.328125 226.695312 Z M 342.878906 111.503906 " clip-rule="nonzero"/></clipPath><clipPath id="46a114029b"><path d="M 231 138 L 234 138 L 234 173 L 231 173 Z M 231 138 " clip-rule="nonzero"/></clipPath><clipPath id="dcf2e840bd"><path d="M 191.183594 122.632812 L 229.328125 119.832031 L 233.003906 169.949219 L 194.859375 172.746094 Z M 191.183594 122.632812 " clip-rule="nonzero"/></clipPath><clipPath id="87529e4525"><path d="M 342.878906 111.503906 L 191.035156 122.640625 L 199.488281 237.832031 L 351.328125 226.695312 Z M 342.878906 111.503906 " clip-rule="nonzero"/></clipPath><clipPath id="04e2d50094"><path d="M 218 172 L 269 172 L 269 236 L 218 236 Z M 218 172 " clip-rule="nonzero"/></clipPath><clipPath id="7f0bdc1efc"><path d="M 218.964844 175.644531 L 265.378906 172.808594 L 269.035156 232.699219 L 222.621094 235.535156 Z M 218.964844 175.644531 " clip-rule="nonzero"/></clipPath><clipPath id="3dd75df50c"><path d="M 97.671875 243.503906 L 269.101562 233.035156 L 261.148438 102.777344 L 89.714844 113.25 Z M 97.671875 243.503906 " clip-rule="nonzero"/></clipPath><clipPath id="7e77eda655"><path d="M 218 172 L 225 172 L 225 214 L 218 214 Z M 218 172 " clip-rule="nonzero"/></clipPath><clipPath id="21d57867e6"><path d="M 218.964844 175.644531 L 265.378906 172.808594 L 269.035156 232.699219 L 222.621094 235.535156 Z M 218.964844 175.644531 " clip-rule="nonzero"/></clipPath><clipPath id="37828a6f1d"><path d="M 97.671875 243.503906 L 269.101562 233.035156 L 261.148438 102.777344 L 89.714844 113.25 Z M 97.671875 243.503906 " clip-rule="nonzero"/></clipPath><clipPath id="05e08b382f"><path d="M 106.507812 96.597656 L 273.757812 96.597656 L 273.757812 263.847656 L 106.507812 263.847656 Z M 106.507812 96.597656 " clip-rule="nonzero"/></clipPath></defs><rect x="-37.5" width="450" fill="#ffffff" y="-37.499999" height="449.999989" fill-opacity="1"/><rect x="-37.5" width="450" fill="#ffffff" y="-37.499999" height="449.999989" fill-opacity="1"/><rect x="-37.5" width="450" fill="#ffffff" y="-37.499999" height="449.999989" fill-opacity="1"/><g clip-path="url(#a9480067a6)"><path fill="#8bcd25" d="M 115.277344 120.671875 C 116.667969 120.671875 118.761719 120.871094 121.5625 121.269531 C 124.363281 121.667969 126.433594 121.867188 127.773438 121.867188 C 129.855469 121.867188 131.886719 121.667969 133.875 121.269531 C 135.851562 120.871094 137.21875 120.671875 137.960938 120.671875 C 139.546875 120.671875 140.886719 121.027344 141.980469 121.742188 C 143.070312 122.457031 143.613281 123.425781 143.613281 124.65625 C 143.613281 125.691406 143.109375 126.578125 142.089844 127.316406 C 141.070312 128.054688 139.839844 128.425781 138.402344 128.425781 C 135.21875 128.425781 133.628906 129.769531 133.628906 132.457031 C 133.628906 133.550781 133.902344 134.96875 134.449219 136.714844 L 145.984375 173.867188 C 145.761719 173.847656 145.535156 173.839844 145.308594 173.859375 C 143.464844 174.011719 141.996094 175.519531 141.894531 177.371094 C 141.746094 180.042969 141.71875 182.527344 141.792969 184.84375 C 141.820312 185.625 140.722656 185.808594 140.496094 185.0625 C 136.066406 170.542969 131.316406 154.726562 126.246094 137.605469 C 125.355469 134.71875 123.824219 132.417969 121.660156 130.699219 C 119.5 128.984375 117.277344 128.125 114.992188 128.125 C 113.949219 128.125 112.890625 127.804688 111.820312 127.164062 C 110.753906 126.527344 110.21875 125.570312 110.21875 124.289062 C 110.21875 121.875 111.90625 120.671875 115.277344 120.671875 Z M 191.84375 170.265625 C 192.089844 165.113281 193.625 160.539062 196.503906 156.460938 L 209.582031 200.136719 C 209.878906 201.179688 210.148438 201.699219 210.394531 201.699219 C 210.640625 201.699219 210.960938 201.128906 211.351562 199.988281 C 222.003906 166.902344 229.164062 145.460938 232.847656 135.660156 C 233.640625 133.472656 234.039062 131.980469 234.039062 131.183594 C 234.039062 129.496094 232.699219 128.597656 230.015625 128.5 C 226.535156 128.351562 224.796875 127.09375 224.796875 124.730469 C 224.796875 123.449219 225.390625 122.441406 226.582031 121.703125 C 227.769531 120.964844 229.261719 120.59375 231.046875 120.59375 C 231.835938 120.59375 233.449219 120.832031 235.878906 121.304688 C 238.308594 121.777344 240.5625 122.011719 242.648438 122.011719 C 245.375 122.011719 247.792969 121.800781 249.902344 121.378906 C 252.007812 120.960938 253.660156 120.746094 254.847656 120.746094 C 258.367188 120.746094 260.128906 122.027344 260.128906 124.589844 C 260.128906 125.941406 259.804688 126.859375 259.160156 127.335938 C 258.515625 127.8125 257.097656 128.226562 254.910156 128.574219 C 252.722656 128.921875 251.023438 129.78125 249.804688 131.144531 C 248.585938 132.507812 247.507812 134.554688 246.5625 137.289062 L 216.375 228.535156 C 215.636719 230.777344 215.082031 232.230469 214.714844 232.898438 C 214.34375 233.570312 213.640625 233.90625 212.605469 233.90625 C 211.917969 233.90625 211.300781 233.644531 210.765625 233.121094 C 210.222656 232.597656 209.605469 231.171875 208.917969 228.835938 L 191.824219 170.792969 C 191.832031 170.542969 191.839844 170.363281 191.84375 170.265625 Z M 181.40625 123.953125 C 182.101562 121.816406 183.023438 120.746094 184.171875 120.746094 C 184.917969 120.746094 185.464844 121.007812 185.808594 121.53125 C 186.160156 122.050781 186.558594 123.132812 187.007812 124.769531 L 191.421875 139.511719 C 186.9375 140.183594 182.835938 142.054688 179.433594 144.292969 C 179.410156 144.261719 179.378906 144.234375 179.355469 144.210938 C 178.191406 143.03125 176.417969 142.761719 174.957031 143.535156 L 181.40625 123.953125 " fill-opacity="1" fill-rule="nonzero"/></g><g clip-path="url(#9b7a6dfea5)"><path fill="#8bcd25" d="M 162.1875 233.375 C 163.535156 230.746094 164.796875 228.039062 165.457031 225.128906 C 166.160156 222.207031 166.453125 219.207031 166.398438 216.257812 C 166.371094 215.214844 166.304688 214.1875 166.222656 213.160156 C 166.222656 213.148438 166.226562 213.140625 166.238281 213.136719 C 174.433594 208.925781 183.425781 198.71875 184.488281 197.492188 C 184.507812 197.46875 184.480469 197.441406 184.453125 197.457031 C 179.773438 200.257812 177.199219 198.074219 176.960938 197.855469 C 176.949219 197.84375 176.953125 197.828125 176.964844 197.820312 C 187.894531 188.148438 188.148438 170.144531 188.148438 170.144531 C 188.625 159.867188 193.632812 151.523438 203.355469 144.898438 C 203.371094 144.886719 203.371094 144.859375 203.351562 144.851562 C 188.664062 137.878906 175.929688 151.9375 175.316406 152.632812 C 175.300781 152.648438 175.285156 152.644531 175.273438 152.625 C 174.550781 151.132812 176.4375 147.394531 176.730469 146.832031 C 176.742188 146.808594 176.714844 146.785156 176.691406 146.796875 C 155.59375 157.5625 150.328125 182.746094 150.25 183.683594 C 150.25 183.699219 150.238281 183.703125 150.222656 183.699219 C 147.035156 183.035156 145.863281 178.5625 145.636719 177.558594 C 145.632812 177.527344 145.585938 177.539062 145.585938 177.570312 C 143.859375 208.316406 159.113281 211.558594 161.054688 212.148438 C 161.074219 212.15625 161.085938 212.140625 161.078125 212.121094 C 154.539062 185.699219 173.164062 167.496094 175.460938 165.371094 C 175.484375 165.351562 175.519531 165.378906 175.5 165.40625 C 173.5625 167.90625 171.316406 172.546875 169.816406 175.886719 C 168.808594 177.953125 167.902344 180.074219 167.074219 182.21875 C 166.054688 184.914062 165.175781 187.65625 164.421875 190.445312 C 163.679688 193.273438 163.328125 196.195312 163.230469 199.109375 C 163.066406 204.953125 164.046875 210.683594 163.902344 216.25 C 163.816406 219.027344 163.414062 221.753906 162.648438 224.367188 C 161.921875 226.996094 160.625 229.425781 159.265625 231.792969 L 159.210938 231.894531 C 159.199219 231.914062 159.1875 231.933594 159.175781 231.957031 C 158.734375 232.816406 159.113281 233.882812 160.027344 234.257812 C 160.84375 234.59375 161.785156 234.160156 162.1875 233.375 " fill-opacity="1" fill-rule="nonzero"/></g><path fill="#8bcd25" d="M 140.980469 193.675781 C 140.988281 193.667969 140.996094 193.675781 141 193.683594 C 141.382812 199.179688 143.570312 203.179688 147.613281 205.800781 C 147.613281 205.800781 154.835938 210.160156 156.160156 216.867188 C 156.164062 216.875 156.167969 216.878906 156.179688 216.878906 C 156.320312 216.832031 157.8125 216.304688 157.785156 213.75 C 157.789062 213.738281 157.804688 213.730469 157.808594 213.746094 C 158.003906 214.316406 159.308594 218.246094 159.71875 222 L 159.714844 222.003906 C 159.804688 222.792969 159.851562 223.574219 159.839844 224.316406 C 159.839844 224.328125 159.835938 224.34375 159.835938 224.355469 C 159.789062 224.925781 159.691406 225.464844 159.578125 225.949219 C 157.601562 224.847656 155.4375 223.964844 153.4375 222.722656 C 152.28125 221.996094 151.183594 221.164062 150.21875 220.195312 C 149.265625 219.230469 148.367188 218.226562 147.515625 217.179688 C 146.847656 216.335938 146.203125 215.46875 145.601562 214.570312 C 144.605469 213.175781 143.261719 211.167969 142.710938 209.796875 C 142.703125 209.78125 142.683594 209.789062 142.683594 209.804688 C 143.003906 211.234375 145.957031 223.070312 158.191406 226.671875 C 158.199219 226.671875 158.203125 226.679688 158.195312 226.6875 C 157.5 227.332031 152.582031 232.734375 140.554688 224.769531 C 140.542969 224.761719 140.550781 224.742188 140.566406 224.746094 C 141.023438 224.890625 143.109375 225.476562 144.132812 224.34375 C 144.136719 224.339844 144.136719 224.335938 144.132812 224.328125 C 143.769531 224.078125 134.832031 215.992188 135.464844 204.917969 C 135.464844 204.90625 135.480469 204.898438 135.488281 204.910156 C 135.644531 205.160156 136.710938 206.804688 137.484375 206.867188 C 137.496094 206.867188 137.5 206.859375 137.5 206.851562 C 137.363281 206.441406 134.6875 197.964844 140.980469 193.675781 " fill-opacity="1" fill-rule="nonzero"/><g clip-path="url(#86958490da)"><g clip-path="url(#806e412e7c)"><g clip-path="url(#5189234e4b)"><path fill="#8bcd25" d="M 196.210938 122.347656 C 197.613281 122.242188 199.75 122.285156 202.613281 122.480469 C 205.480469 122.675781 207.589844 122.722656 208.945312 122.621094 C 211.050781 122.46875 213.097656 122.117188 215.074219 121.566406 C 217.050781 121.015625 218.417969 120.714844 219.167969 120.660156 C 220.773438 120.542969 222.15625 120.804688 223.316406 121.441406 C 224.46875 122.085938 225.09375 123.023438 225.1875 124.269531 C 225.261719 125.3125 224.816406 126.246094 223.839844 127.070312 C 222.859375 127.890625 221.644531 128.355469 220.1875 128.460938 C 216.964844 128.699219 215.457031 130.175781 215.65625 132.890625 C 215.738281 133.996094 216.121094 135.410156 216.804688 137.128906 L 231.230469 173.816406 C 231.007812 173.8125 230.777344 173.824219 230.546875 173.859375 C 228.691406 174.152344 227.316406 175.78125 227.355469 177.660156 C 227.398438 180.371094 227.554688 182.882812 227.804688 185.21875 C 227.890625 186.003906 226.792969 186.273438 226.507812 185.535156 C 220.949219 171.195312 214.964844 155.5625 208.566406 138.640625 C 207.449219 135.789062 205.730469 133.578125 203.414062 132.003906 C 201.097656 130.433594 198.785156 129.726562 196.472656 129.894531 C 195.414062 129.972656 194.320312 129.730469 193.191406 129.160156 C 192.0625 128.597656 191.453125 127.667969 191.359375 126.375 C 191.179688 123.9375 192.796875 122.597656 196.210938 122.347656 Z M 277.382812 166.769531 C 277.25 161.546875 278.464844 156.8125 281.074219 152.476562 L 297.550781 195.636719 C 297.929688 196.667969 298.242188 197.175781 298.492188 197.15625 C 298.738281 197.140625 299.023438 196.539062 299.332031 195.355469 C 307.660156 161.132812 313.316406 138.9375 316.320312 128.757812 C 316.960938 126.492188 317.253906 124.953125 317.195312 124.148438 C 317.070312 122.441406 315.648438 121.632812 312.921875 121.734375 C 309.386719 121.84375 307.535156 120.703125 307.359375 118.3125 C 307.265625 117.019531 307.792969 115.957031 308.945312 115.121094 C 310.09375 114.289062 311.574219 113.804688 313.378906 113.671875 C 314.183594 113.613281 315.828125 113.730469 318.328125 114.027344 C 320.820312 114.328125 323.121094 114.398438 325.230469 114.242188 C 327.988281 114.039062 330.421875 113.648438 332.523438 113.0625 C 334.625 112.484375 336.28125 112.144531 337.480469 112.058594 C 341.046875 111.796875 342.925781 112.957031 343.117188 115.546875 C 343.214844 116.914062 342.953125 117.863281 342.335938 118.394531 C 341.71875 118.925781 340.316406 119.449219 338.125 119.960938 C 335.941406 120.476562 334.285156 121.46875 333.148438 122.9375 C 332.019531 124.40625 331.078125 126.554688 330.324219 129.386719 L 306.53125 223.828125 C 305.949219 226.148438 305.5 227.65625 305.175781 228.359375 C 304.851562 229.066406 304.164062 229.457031 303.117188 229.535156 C 302.417969 229.585938 301.773438 229.367188 301.191406 228.878906 C 300.605469 228.390625 299.878906 226.992188 299.007812 224.6875 L 277.402344 167.304688 C 277.394531 167.050781 277.386719 166.871094 277.382812 166.769531 Z M 263.386719 120.75 C 263.933594 118.539062 264.785156 117.390625 265.945312 117.304688 C 266.703125 117.25 267.277344 117.472656 267.664062 117.976562 C 268.058594 118.476562 268.539062 119.539062 269.117188 121.160156 L 274.675781 135.726562 C 270.1875 136.742188 266.175781 138.9375 262.894531 141.449219 C 262.871094 141.421875 262.835938 141.390625 262.8125 141.371094 C 261.546875 140.269531 259.730469 140.125 258.308594 141.015625 L 263.386719 120.75 " fill-opacity="1" fill-rule="nonzero"/></g></g></g><g clip-path="url(#46a114029b)"><g clip-path="url(#dcf2e840bd)"><g clip-path="url(#87529e4525)"><path fill="#8bcd25" d="M 252.042969 232.742188 C 253.214844 229.984375 254.289062 227.15625 254.742188 224.167969 C 255.238281 221.164062 255.308594 218.109375 255.035156 215.132812 C 254.933594 214.082031 254.789062 213.046875 254.628906 212.015625 C 254.628906 212.007812 254.632812 211.996094 254.640625 211.988281 C 262.625 207.128906 270.972656 196.148438 271.957031 194.828125 C 271.976562 194.804688 271.941406 194.777344 271.917969 194.796875 C 267.386719 197.972656 264.621094 195.957031 264.363281 195.753906 C 264.351562 195.746094 264.351562 195.730469 264.363281 195.71875 C 274.710938 185.136719 273.636719 166.925781 273.636719 166.925781 C 273.355469 156.503906 277.804688 147.699219 287.152344 140.285156 C 287.171875 140.269531 287.167969 140.242188 287.144531 140.234375 C 271.765625 134.28125 259.917969 149.433594 259.347656 150.179688 C 259.332031 150.199219 259.316406 150.195312 259.304688 150.175781 C 258.460938 148.722656 260.09375 144.804688 260.347656 144.214844 C 260.355469 144.191406 260.328125 144.167969 260.308594 144.183594 C 239.753906 156.628906 236.289062 182.460938 236.277344 183.417969 C 236.277344 183.433594 236.265625 183.4375 236.25 183.4375 C 232.976562 183.003906 231.457031 178.570312 231.15625 177.570312 C 231.144531 177.542969 231.101562 177.554688 231.101562 177.585938 C 231.632812 208.78125 247.316406 210.925781 249.324219 211.378906 C 249.34375 211.386719 249.351562 211.367188 249.34375 211.347656 C 240.769531 185.136719 258.273438 165.359375 260.4375 163.042969 C 260.460938 163.019531 260.496094 163.046875 260.480469 163.074219 C 258.707031 165.746094 256.773438 170.601562 255.503906 174.085938 C 254.640625 176.25 253.878906 178.460938 253.195312 180.6875 C 252.367188 183.488281 251.679688 186.324219 251.121094 189.199219 C 250.582031 192.109375 250.441406 195.085938 250.558594 198.039062 C 250.828125 203.957031 252.246094 209.675781 252.511719 215.308594 C 252.628906 218.125 252.421875 220.910156 251.839844 223.605469 C 251.300781 226.316406 250.167969 228.867188 248.972656 231.359375 L 248.917969 231.46875 C 248.910156 231.488281 248.898438 231.507812 248.890625 231.53125 C 248.503906 232.433594 248.96875 233.480469 249.925781 233.792969 C 250.773438 234.070312 251.695312 233.566406 252.042969 232.742188 " fill-opacity="1" fill-rule="nonzero"/></g></g></g><g clip-path="url(#04e2d50094)"><g clip-path="url(#7f0bdc1efc)"><g clip-path="url(#3dd75df50c)"><path fill="#8bcd25" d="M 263.265625 233.296875 C 261.675781 233.394531 259.269531 233.316406 256.042969 233.054688 C 252.8125 232.792969 250.433594 232.714844 248.902344 232.808594 C 246.523438 232.953125 244.214844 233.320312 241.972656 233.914062 C 239.738281 234.507812 238.191406 234.828125 237.34375 234.878906 C 235.53125 234.992188 233.976562 234.679688 232.675781 233.941406 C 231.382812 233.199219 230.691406 232.128906 230.605469 230.722656 C 230.53125 229.542969 231.050781 228.492188 232.164062 227.578125 C 233.277344 226.664062 234.65625 226.152344 236.300781 226.054688 C 239.9375 225.832031 241.660156 224.183594 241.472656 221.113281 C 241.398438 219.863281 240.980469 218.261719 240.234375 216.308594 L 224.464844 174.660156 C 224.71875 174.667969 224.976562 174.660156 225.234375 174.621094 C 227.332031 174.316406 228.90625 172.492188 228.890625 170.371094 C 228.875 167.308594 228.734375 164.464844 228.484375 161.824219 C 228.398438 160.9375 229.640625 160.648438 229.949219 161.484375 C 236.027344 177.765625 242.5625 195.507812 249.550781 214.714844 C 250.769531 217.953125 252.679688 220.472656 255.269531 222.285156 C 257.863281 224.09375 260.460938 224.921875 263.070312 224.761719 C 264.265625 224.691406 265.496094 224.980469 266.761719 225.636719 C 268.027344 226.289062 268.703125 227.351562 268.792969 228.8125 C 268.960938 231.570312 267.117188 233.0625 263.265625 233.296875 Z M 172.308594 181.976562 C 172.386719 187.878906 170.949219 193.214844 167.945312 198.074219 L 149.953125 149.085938 C 149.539062 147.914062 149.195312 147.335938 148.914062 147.351562 C 148.632812 147.371094 148.304688 148.042969 147.941406 149.378906 C 138.078125 187.925781 131.390625 212.925781 127.867188 224.378906 C 127.113281 226.933594 126.757812 228.664062 126.816406 229.578125 C 126.933594 231.507812 128.527344 232.4375 131.601562 232.363281 C 135.589844 232.289062 137.664062 233.601562 137.828125 236.304688 C 137.917969 237.765625 137.308594 238.960938 135.996094 239.890625 C 134.691406 240.816406 133.011719 241.34375 130.976562 241.46875 C 130.070312 241.523438 128.214844 241.363281 125.402344 240.996094 C 122.59375 240.621094 120 240.511719 117.617188 240.65625 C 114.5 240.847656 111.75 241.257812 109.371094 241.886719 C 106.992188 242.511719 105.121094 242.871094 103.765625 242.953125 C 99.742188 243.199219 97.636719 241.859375 97.460938 238.933594 C 97.363281 237.386719 97.671875 236.316406 98.375 235.726562 C 99.078125 235.136719 100.671875 234.5625 103.148438 234.015625 C 105.621094 233.464844 107.503906 232.367188 108.804688 230.722656 C 110.097656 229.078125 111.1875 226.664062 112.078125 223.472656 L 140.207031 117.109375 C 140.898438 114.496094 141.425781 112.796875 141.800781 112.007812 C 142.175781 111.214844 142.957031 110.78125 144.140625 110.710938 C 144.925781 110.664062 145.648438 110.917969 146.300781 111.476562 C 146.953125 112.035156 147.757812 113.625 148.707031 116.242188 L 172.292969 181.371094 C 172.300781 181.660156 172.304688 181.863281 172.308594 181.976562 Z M 187.464844 234.164062 C 186.820312 236.65625 185.84375 237.941406 184.53125 238.019531 C 183.675781 238.074219 183.03125 237.8125 182.601562 237.238281 C 182.167969 236.667969 181.636719 235.464844 181.007812 233.621094 L 174.9375 217.085938 C 180.011719 216.003906 184.570312 213.578125 188.300781 210.785156 C 188.332031 210.816406 188.367188 210.851562 188.398438 210.875 C 189.808594 212.140625 191.855469 212.324219 193.46875 211.339844 L 187.464844 234.164062 " fill-opacity="1" fill-rule="nonzero"/></g></g></g><g clip-path="url(#7e77eda655)"><g clip-path="url(#21d57867e6)"><g clip-path="url(#37828a6f1d)"><path fill="#8bcd25" d="M 201.792969 107.796875 C 200.433594 110.894531 199.183594 114.074219 198.632812 117.445312 C 198.03125 120.832031 197.910156 124.285156 198.175781 127.648438 C 198.277344 128.839844 198.425781 130.007812 198.59375 131.175781 C 198.59375 131.1875 198.589844 131.199219 198.578125 131.207031 C 189.507812 136.585938 179.941406 148.878906 178.8125 150.351562 C 178.789062 150.378906 178.828125 150.410156 178.855469 150.390625 C 184.007812 146.863281 187.101562 149.183594 187.390625 149.414062 C 187.402344 149.425781 187.402344 149.441406 187.390625 149.453125 C 175.570312 161.265625 176.539062 181.855469 176.539062 181.855469 C 176.710938 193.632812 171.570312 203.515625 160.921875 211.765625 C 160.90625 211.777344 160.910156 211.808594 160.929688 211.820312 C 178.199219 218.757812 191.769531 201.804688 192.425781 200.96875 C 192.441406 200.953125 192.460938 200.957031 192.472656 200.976562 C 193.40625 202.628906 191.511719 207.03125 191.214844 207.699219 C 191.203125 207.722656 191.234375 207.75 191.261719 207.734375 C 214.617188 193.960938 218.875 164.820312 218.902344 163.742188 C 218.902344 163.722656 218.914062 163.71875 218.933594 163.71875 C 222.621094 164.257812 224.273438 169.289062 224.597656 170.417969 C 224.609375 170.453125 224.660156 170.4375 224.660156 170.402344 C 224.488281 135.148438 206.828125 132.507812 204.570312 131.96875 C 204.542969 131.964844 204.535156 131.980469 204.542969 132.003906 C 213.859375 161.738281 193.84375 183.839844 191.371094 186.421875 C 191.34375 186.449219 191.304688 186.417969 191.324219 186.386719 C 193.363281 183.394531 195.605469 177.9375 197.085938 174.019531 C 198.09375 171.582031 198.980469 169.097656 199.78125 166.589844 C 200.753906 163.4375 201.570312 160.242188 202.238281 157.003906 C 202.886719 153.722656 203.085938 150.359375 202.992188 147.023438 C 202.769531 140.335938 201.25 133.855469 201.027344 127.484375 C 200.933594 124.304688 201.203125 121.160156 201.894531 118.121094 C 202.542969 115.066406 203.855469 112.199219 205.242188 109.402344 L 205.300781 109.28125 C 205.3125 109.257812 205.324219 109.234375 205.332031 109.210938 C 205.78125 108.195312 205.269531 107.003906 204.199219 106.636719 C 203.242188 106.3125 202.199219 106.871094 201.792969 107.796875 " fill-opacity="1" fill-rule="nonzero"/></g></g></g><g clip-path="url(#05e08b382f)"><path fill="#ffffff" d="M 273.757812 263.847656 L 106.507812 263.847656 L 106.507812 96.597656 L 273.757812 96.597656 Z M 107.570312 262.785156 L 272.695312 262.785156 L 272.695312 97.660156 L 107.570312 97.660156 Z M 107.570312 262.785156 " fill-opacity="1" fill-rule="nonzero"/></g><g fill="#8bcd25" fill-opacity="1"><g transform="translate(149.175713, 251.078523)"><g><path d="M 3.140625 -0.171875 C 3.035156 -0.015625 2.851562 0.0625 2.59375 0.0625 C 2.332031 0.0625 2.109375 -0.0078125 1.921875 -0.15625 C 1.742188 -0.300781 1.59375 -0.484375 1.46875 -0.703125 C 1.226562 -1.140625 1.109375 -1.578125 1.109375 -2.015625 C 1.109375 -2.453125 1.15625 -2.898438 1.25 -3.359375 C 1.351562 -3.816406 1.488281 -4.300781 1.65625 -4.8125 C 1.820312 -5.320312 2.015625 -5.84375 2.234375 -6.375 C 2.453125 -6.90625 2.6875 -7.421875 2.9375 -7.921875 C 3.445312 -8.972656 3.957031 -9.882812 4.46875 -10.65625 L 4.375 -10.65625 C 3.757812 -10.65625 3.1875 -10.515625 2.65625 -10.234375 C 2.519531 -10.140625 2.394531 -10.09375 2.28125 -10.09375 C 2.03125 -10.09375 1.785156 -10.210938 1.546875 -10.453125 C 1.003906 -11.023438 1.328125 -11.5 2.515625 -11.875 C 3.078125 -12.0625 3.523438 -12.15625 3.859375 -12.15625 C 4.203125 -12.15625 4.476562 -12.097656 4.6875 -11.984375 C 4.894531 -11.878906 5.070312 -11.753906 5.21875 -11.609375 C 5.445312 -11.378906 5.609375 -11.148438 5.703125 -10.921875 C 5.804688 -10.703125 5.859375 -10.507812 5.859375 -10.34375 C 5.859375 -10.175781 5.804688 -9.945312 5.703125 -9.65625 C 5.597656 -9.375 5.46875 -9.070312 5.3125 -8.75 L 4.78125 -7.71875 C 4.59375 -7.363281 4.40625 -6.988281 4.21875 -6.59375 C 4.03125 -6.195312 3.84375 -5.800781 3.65625 -5.40625 C 3.46875 -5.007812 3.300781 -4.625 3.15625 -4.25 C 2.84375 -3.40625 2.6875 -2.691406 2.6875 -2.109375 C 2.6875 -1.785156 2.71875 -1.507812 2.78125 -1.28125 L 3.59375 -2.640625 C 5.257812 -5.328125 6.90625 -7.347656 8.53125 -8.703125 C 8.988281 -9.085938 9.441406 -9.390625 9.890625 -9.609375 C 9.960938 -9.648438 10.046875 -9.671875 10.140625 -9.671875 C 10.242188 -9.671875 10.351562 -9.65625 10.46875 -9.625 C 10.582031 -9.601562 10.6875 -9.570312 10.78125 -9.53125 C 11.007812 -9.414062 11.125 -9.28125 11.125 -9.125 C 11.125 -9.050781 11.097656 -8.984375 11.046875 -8.921875 L 10.78125 -8.625 C 9.738281 -7.519531 9.035156 -5.976562 8.671875 -4 C 8.554688 -3.394531 8.5 -2.910156 8.5 -2.546875 C 8.5 -2.191406 8.507812 -1.945312 8.53125 -1.8125 C 8.550781 -1.6875 8.59375 -1.566406 8.65625 -1.453125 C 8.800781 -1.191406 9.015625 -1.0625 9.296875 -1.0625 C 9.578125 -1.0625 9.890625 -1.164062 10.234375 -1.375 C 10.578125 -1.582031 10.921875 -1.867188 11.265625 -2.234375 C 11.617188 -2.597656 11.960938 -3.023438 12.296875 -3.515625 C 12.628906 -4.015625 12.921875 -4.546875 13.171875 -5.109375 C 13.742188 -6.347656 14.03125 -7.535156 14.03125 -8.671875 C 14.03125 -9.535156 13.835938 -10.269531 13.453125 -10.875 C 13.347656 -11.03125 13.453125 -11.234375 13.765625 -11.484375 C 14.078125 -11.742188 14.425781 -11.875 14.8125 -11.875 C 15.332031 -11.875 15.679688 -11.414062 15.859375 -10.5 C 15.921875 -10.195312 15.953125 -9.800781 15.953125 -9.3125 C 15.953125 -8.820312 15.890625 -8.28125 15.765625 -7.6875 C 15.648438 -7.101562 15.484375 -6.53125 15.265625 -5.96875 C 15.054688 -5.414062 14.800781 -4.878906 14.5 -4.359375 C 14.207031 -3.847656 13.882812 -3.367188 13.53125 -2.921875 C 13.1875 -2.472656 12.816406 -2.0625 12.421875 -1.6875 C 12.035156 -1.320312 11.640625 -1.007812 11.234375 -0.75 C 10.398438 -0.195312 9.609375 0.078125 8.859375 0.078125 C 8.171875 0.078125 7.65625 -0.191406 7.3125 -0.734375 C 7.019531 -1.203125 6.875 -1.800781 6.875 -2.53125 C 6.875 -3.726562 7.101562 -4.890625 7.5625 -6.015625 C 7.132812 -5.535156 6.710938 -5.035156 6.296875 -4.515625 C 5.273438 -3.179688 4.566406 -2.226562 4.171875 -1.65625 Z M 3.140625 -0.171875 "/></g></g></g><g fill="#8bcd25" fill-opacity="1"><g transform="translate(164.234535, 251.078523)"><g/></g></g><g fill="#8bcd25" fill-opacity="1"><g transform="translate(169.147403, 251.078523)"><g><path d="M 6.59375 -2.078125 C 6.59375 -1.597656 6.765625 -1.359375 7.109375 -1.359375 C 7.335938 -1.359375 7.53125 -1.394531 7.6875 -1.46875 C 7.84375 -1.539062 7.945312 -1.578125 8 -1.578125 C 8.101562 -1.578125 8.15625 -1.519531 8.15625 -1.40625 C 8.15625 -0.957031 7.921875 -0.570312 7.453125 -0.25 C 6.960938 0.09375 6.457031 0.175781 5.9375 0 C 5.601562 -0.125 5.351562 -0.382812 5.1875 -0.78125 C 5.113281 -0.976562 5.078125 -1.160156 5.078125 -1.328125 C 5.078125 -1.597656 5.101562 -1.882812 5.15625 -2.1875 C 4.664062 -1.195312 4.0625 -0.515625 3.34375 -0.140625 C 3.0625 0.00390625 2.757812 0.078125 2.4375 0.078125 C 2.113281 0.078125 1.832031 0.0078125 1.59375 -0.125 C 1.351562 -0.257812 1.148438 -0.441406 0.984375 -0.671875 C 0.648438 -1.160156 0.5 -1.773438 0.53125 -2.515625 C 0.5625 -3.441406 0.832031 -4.351562 1.34375 -5.25 C 1.820312 -6.082031 2.421875 -6.757812 3.140625 -7.28125 C 3.867188 -7.820312 4.546875 -8.09375 5.171875 -8.09375 C 5.804688 -8.09375 6.316406 -7.800781 6.703125 -7.21875 C 7.054688 -7.800781 7.375 -8.09375 7.65625 -8.09375 C 7.945312 -8.09375 8.171875 -8.035156 8.328125 -7.921875 C 8.609375 -7.710938 8.707031 -7.53125 8.625 -7.375 C 7.320312 -4.695312 6.648438 -3.03125 6.609375 -2.375 C 6.597656 -2.28125 6.59375 -2.179688 6.59375 -2.078125 Z M 2.265625 -2.046875 C 2.265625 -1.421875 2.460938 -1.109375 2.859375 -1.109375 C 3.171875 -1.109375 3.550781 -1.367188 4 -1.890625 C 4.65625 -2.660156 5.234375 -3.691406 5.734375 -4.984375 C 5.898438 -5.390625 6.035156 -5.796875 6.140625 -6.203125 C 6.117188 -6.554688 5.972656 -6.816406 5.703125 -6.984375 C 5.609375 -7.046875 5.46875 -7.078125 5.28125 -7.078125 C 5.09375 -7.078125 4.875 -7.007812 4.625 -6.875 C 4.382812 -6.738281 4.144531 -6.550781 3.90625 -6.3125 C 3.675781 -6.082031 3.460938 -5.804688 3.265625 -5.484375 C 3.066406 -5.160156 2.890625 -4.8125 2.734375 -4.4375 C 2.421875 -3.632812 2.265625 -2.835938 2.265625 -2.046875 Z M 2.265625 -2.046875 "/></g></g></g><g fill="#8bcd25" fill-opacity="1"><g transform="translate(177.809355, 251.078523)"><g/></g></g><g fill="#8bcd25" fill-opacity="1"><g transform="translate(182.722223, 251.078523)"><g><path d="M 0.1875 -1.375 C 0.1875 -1.539062 0.222656 -1.691406 0.296875 -1.828125 C 0.367188 -1.960938 0.457031 -2.078125 0.5625 -2.171875 C 0.78125 -2.378906 1.007812 -2.484375 1.25 -2.484375 C 1.457031 -2.484375 1.5625 -2.375 1.5625 -2.15625 C 1.5625 -1.613281 1.738281 -1.238281 2.09375 -1.03125 C 2.226562 -0.945312 2.363281 -0.90625 2.5 -0.90625 C 2.644531 -0.90625 2.765625 -0.921875 2.859375 -0.953125 C 2.960938 -0.984375 3.054688 -1.035156 3.140625 -1.109375 C 3.328125 -1.253906 3.421875 -1.429688 3.421875 -1.640625 C 3.421875 -1.847656 3.375 -2.039062 3.28125 -2.21875 C 3.1875 -2.394531 3.066406 -2.578125 2.921875 -2.765625 L 2.484375 -3.390625 C 1.859375 -4.222656 1.546875 -4.992188 1.546875 -5.703125 C 1.546875 -6.285156 1.789062 -6.8125 2.28125 -7.28125 C 2.84375 -7.820312 3.566406 -8.09375 4.453125 -8.09375 C 5.222656 -8.09375 5.820312 -7.898438 6.25 -7.515625 C 6.601562 -7.210938 6.78125 -6.863281 6.78125 -6.46875 C 6.78125 -6.050781 6.625 -5.722656 6.3125 -5.484375 C 6.03125 -5.265625 5.75 -5.179688 5.46875 -5.234375 C 5.34375 -5.265625 5.242188 -5.328125 5.171875 -5.421875 C 5.109375 -5.523438 5.097656 -5.640625 5.140625 -5.765625 C 5.179688 -5.898438 5.203125 -6.035156 5.203125 -6.171875 C 5.203125 -6.316406 5.175781 -6.445312 5.125 -6.5625 C 5.070312 -6.6875 5.003906 -6.789062 4.921875 -6.875 C 4.734375 -7.050781 4.539062 -7.140625 4.34375 -7.140625 C 4.144531 -7.140625 3.976562 -7.113281 3.84375 -7.0625 C 3.71875 -7.019531 3.601562 -6.957031 3.5 -6.875 C 3.300781 -6.6875 3.203125 -6.457031 3.203125 -6.1875 C 3.203125 -5.914062 3.25 -5.679688 3.34375 -5.484375 C 3.4375 -5.285156 3.550781 -5.085938 3.6875 -4.890625 C 3.820312 -4.691406 3.96875 -4.488281 4.125 -4.28125 C 4.289062 -4.082031 4.441406 -3.867188 4.578125 -3.640625 C 4.910156 -3.117188 5.078125 -2.65625 5.078125 -2.25 C 5.078125 -1.851562 4.992188 -1.519531 4.828125 -1.25 C 4.660156 -0.988281 4.441406 -0.757812 4.171875 -0.5625 C 3.609375 -0.132812 2.972656 0.078125 2.265625 0.078125 C 1.597656 0.078125 1.066406 -0.0859375 0.671875 -0.421875 C 0.347656 -0.691406 0.1875 -1.007812 0.1875 -1.375 Z M 0.1875 -1.375 "/></g></g></g><g fill="#8bcd25" fill-opacity="1"><g transform="translate(189.494012, 251.078523)"><g/></g></g><g fill="#8bcd25" fill-opacity="1"><g transform="translate(194.406881, 251.078523)"><g><path d="M 5.125 -2.046875 C 5.269531 -2.046875 5.34375 -1.945312 5.34375 -1.75 C 5.34375 -1.570312 5.289062 -1.40625 5.1875 -1.25 C 5.050781 -0.945312 4.769531 -0.660156 4.34375 -0.390625 C 3.863281 -0.078125 3.382812 0.078125 2.90625 0.078125 C 2.0625 0.078125 1.53125 -0.296875 1.3125 -1.046875 C 1.039062 -1.941406 1.4375 -3.832031 2.5 -6.71875 C 1.90625 -6.769531 1.582031 -6.875 1.53125 -7.03125 C 1.507812 -7.070312 1.5 -7.117188 1.5 -7.171875 C 1.5 -7.234375 1.523438 -7.300781 1.578125 -7.375 C 1.628906 -7.445312 1.691406 -7.515625 1.765625 -7.578125 C 1.953125 -7.734375 2.140625 -7.8125 2.328125 -7.8125 L 2.9375 -7.8125 C 3.5 -9.125 3.898438 -9.875 4.140625 -10.0625 C 4.253906 -10.144531 4.378906 -10.1875 4.515625 -10.1875 C 4.660156 -10.1875 4.78125 -10.164062 4.875 -10.125 C 4.96875 -10.09375 5.050781 -10.039062 5.125 -9.96875 C 5.289062 -9.8125 5.375 -9.640625 5.375 -9.453125 C 5.375 -9.347656 5.34375 -9.226562 5.28125 -9.09375 L 4.703125 -7.828125 L 4.890625 -7.828125 C 5.210938 -7.828125 5.472656 -7.832031 5.671875 -7.84375 C 5.671875 -7.84375 5.820312 -7.84375 6.125 -7.84375 C 6.21875 -7.851562 6.335938 -7.859375 6.484375 -7.859375 C 6.640625 -7.859375 6.71875 -7.800781 6.71875 -7.6875 C 6.71875 -7 5.90625 -6.65625 4.28125 -6.65625 L 4.21875 -6.65625 L 3.6875 -5.28125 C 3.082031 -3.65625 2.78125 -2.519531 2.78125 -1.875 C 2.78125 -1.6875 2.820312 -1.539062 2.90625 -1.4375 C 2.988281 -1.34375 3.144531 -1.296875 3.375 -1.296875 C 3.601562 -1.296875 3.8125 -1.332031 4 -1.40625 C 4.1875 -1.488281 4.347656 -1.578125 4.484375 -1.671875 C 4.628906 -1.765625 4.753906 -1.847656 4.859375 -1.921875 C 4.960938 -2.003906 5.050781 -2.046875 5.125 -2.046875 Z M 5.125 -2.046875 "/></g></g></g><g fill="#8bcd25" fill-opacity="1"><g transform="translate(200.147672, 251.078523)"><g/></g></g><g fill="#8bcd25" fill-opacity="1"><g transform="translate(205.06054, 251.078523)"><g><path d="M 0.640625 -2.734375 C 0.660156 -3.191406 0.734375 -3.625 0.859375 -4.03125 C 0.992188 -4.445312 1.171875 -4.847656 1.390625 -5.234375 C 1.609375 -5.628906 1.863281 -6 2.15625 -6.34375 C 2.457031 -6.6875 2.78125 -6.988281 3.125 -7.25 C 3.863281 -7.8125 4.613281 -8.09375 5.375 -8.09375 C 6.269531 -8.09375 6.863281 -7.722656 7.15625 -6.984375 C 7.257812 -6.734375 7.304688 -6.4375 7.296875 -6.09375 C 7.296875 -5.757812 7.234375 -5.445312 7.109375 -5.15625 C 6.984375 -4.863281 6.8125 -4.597656 6.59375 -4.359375 C 6.375 -4.128906 6.109375 -3.921875 5.796875 -3.734375 C 5.492188 -3.546875 5.164062 -3.382812 4.8125 -3.25 C 4.070312 -2.988281 3.28125 -2.851562 2.4375 -2.84375 C 2.414062 -2.769531 2.398438 -2.660156 2.390625 -2.515625 C 2.390625 -2.367188 2.40625 -2.207031 2.4375 -2.03125 C 2.476562 -1.851562 2.539062 -1.691406 2.625 -1.546875 C 2.8125 -1.234375 3.082031 -1.078125 3.4375 -1.078125 C 4.039062 -1.078125 4.628906 -1.253906 5.203125 -1.609375 C 5.410156 -1.734375 5.578125 -1.859375 5.703125 -1.984375 C 5.828125 -2.109375 5.9375 -2.171875 6.03125 -2.171875 C 6.125 -2.171875 6.207031 -2.113281 6.28125 -2 C 6.351562 -1.894531 6.390625 -1.769531 6.390625 -1.625 C 6.390625 -1.351562 6.3125 -1.113281 6.15625 -0.90625 C 5.5 -0.25 4.519531 0.078125 3.21875 0.078125 C 2.457031 0.078125 1.84375 -0.148438 1.375 -0.609375 C 0.851562 -1.128906 0.609375 -1.835938 0.640625 -2.734375 Z M 5.203125 -7.046875 C 4.660156 -7.046875 4.132812 -6.671875 3.625 -5.921875 C 3.195312 -5.273438 2.851562 -4.507812 2.59375 -3.625 C 3.46875 -3.71875 4.222656 -4.0625 4.859375 -4.65625 C 5.453125 -5.21875 5.75 -5.753906 5.75 -6.265625 C 5.75 -6.785156 5.566406 -7.046875 5.203125 -7.046875 Z M 5.203125 -7.046875 "/></g></g></g><g fill="#8bcd25" fill-opacity="1"><g transform="translate(212.605572, 251.078523)"><g><path d="M 1.78125 -4.21875 C 1.488281 -4.21875 1.34375 -4.332031 1.34375 -4.5625 C 1.34375 -4.769531 1.414062 -4.96875 1.5625 -5.15625 C 1.832031 -5.476562 2.046875 -5.632812 2.203125 -5.625 L 5.8125 -5.625 C 6.039062 -5.625 6.15625 -5.519531 6.15625 -5.3125 C 6.15625 -5.09375 6.078125 -4.894531 5.921875 -4.71875 C 5.660156 -4.382812 5.429688 -4.21875 5.234375 -4.21875 Z M 1.78125 -4.21875 "/></g></g></g><g fill="#8bcd25" fill-opacity="1"><g transform="translate(219.83818, 251.078523)"><g><path d="M 7.21875 0.078125 C 5.8125 0.078125 4.820312 -1.257812 4.25 -3.9375 C 3.65625 -3.050781 2.976562 -2.195312 2.21875 -1.375 C 1.300781 -0.40625 0.570312 0.078125 0.03125 0.078125 C -0.269531 0.078125 -0.484375 0.0234375 -0.609375 -0.078125 C -0.941406 -0.347656 -0.941406 -0.5625 -0.609375 -0.71875 C -0.421875 -0.800781 -0.117188 -1.015625 0.296875 -1.359375 C 0.710938 -1.703125 1.117188 -2.082031 1.515625 -2.5 C 2.472656 -3.476562 3.257812 -4.488281 3.875 -5.53125 C 3.664062 -6.445312 3.53125 -7.34375 3.46875 -8.21875 C 3.40625 -9.101562 3.375 -9.648438 3.375 -9.859375 C 3.375 -10.203125 3.382812 -10.460938 3.40625 -10.640625 C 3.4375 -10.828125 3.507812 -11.015625 3.625 -11.203125 C 3.738281 -11.398438 3.878906 -11.566406 4.046875 -11.703125 C 4.390625 -12.003906 4.773438 -12.15625 5.203125 -12.15625 C 5.285156 -12.15625 5.34375 -12.128906 5.375 -12.078125 C 5.40625 -12.035156 5.421875 -11.96875 5.421875 -11.875 C 5.421875 -11.738281 5.394531 -11.492188 5.34375 -11.140625 C 5.238281 -10.429688 5.1875 -9.816406 5.1875 -9.296875 C 5.1875 -8.535156 5.21875 -7.8125 5.28125 -7.125 L 6.734375 -9.125 C 8.015625 -10.882812 9.113281 -11.867188 10.03125 -12.078125 C 10.09375 -12.085938 10.15625 -12.101562 10.21875 -12.125 C 10.289062 -12.144531 10.378906 -12.15625 10.484375 -12.15625 C 10.585938 -12.15625 10.707031 -12.140625 10.84375 -12.109375 C 10.988281 -12.078125 11.113281 -12.035156 11.21875 -11.984375 C 11.457031 -11.859375 11.53125 -11.710938 11.4375 -11.546875 C 11.414062 -11.515625 11.367188 -11.484375 11.296875 -11.453125 C 11.234375 -11.421875 11.144531 -11.375 11.03125 -11.3125 C 10.6875 -11.125 10.359375 -10.898438 10.046875 -10.640625 C 9.191406 -10.023438 8.082031 -8.816406 6.71875 -7.015625 L 5.609375 -5.515625 C 6.078125 -3.421875 6.65625 -2.082031 7.34375 -1.5 C 7.5 -1.363281 7.648438 -1.296875 7.796875 -1.296875 C 7.953125 -1.296875 8.078125 -1.3125 8.171875 -1.34375 C 8.265625 -1.375 8.351562 -1.40625 8.4375 -1.4375 L 8.625 -1.53125 C 8.675781 -1.5625 8.726562 -1.578125 8.78125 -1.578125 C 8.894531 -1.578125 8.953125 -1.519531 8.953125 -1.40625 C 8.953125 -0.957031 8.71875 -0.570312 8.25 -0.25 C 7.925781 -0.03125 7.582031 0.078125 7.21875 0.078125 Z M 7.21875 0.078125 "/></g></g></g></svg>